<svg id="visual" viewBox="0 0 960 540" width="960" height="540" xmlns="http://www.w3.org/2000/svg" xmlns:xlink="http://www.w3.org/1999/xlink" version="1.1"><path d="M0 50L14.5 55.3C29 60.7 58 71.3 87.2 79.3C116.3 87.3 145.7 92.7 174.8 90C204 87.3 233 76.7 262 74.8C291 73 320 80 349 87.2C378 94.3 407 101.7 436.2 99C465.3 96.3 494.7 83.7 523.8 74.7C553 65.7 582 60.3 611 64C640 67.7 669 80.3 698 80.3C727 80.3 756 67.7 785.2 59.5C814.3 51.3 843.7 47.7 872.8 55.8C902 64 931 84 945.5 94L960 104L960 0L945.5 0C931 0 902 0 872.8 0C843.7 0 814.3 0 785.2 0C756 0 727 0 698 0C669 0 640 0 611 0C582 0 553 0 523.8 0C494.7 0 465.3 0 436.2 0C407 0 378 0 349 0C320 0 291 0 262 0C233 0 204 0 174.8 0C145.7 0 116.3 0 87.2 0C58 0 29 0 14.5 0L0 0Z" fill="#9b90d5"></path><path d="M0 109L14.5 121.7C29 134.3 58 159.7 87.2 171.3C116.3 183 145.7 181 174.8 175.5C204 170 233 161 262 156.5C291 152 320 152 349 161C378 170 407 188 436.2 182.7C465.3 177.3 494.7 148.7 523.8 134.3C553 120 582 120 611 134.3C640 148.7 669 177.3 698 178.2C727 179 756 152 785.2 136.7C814.3 121.3 843.7 117.7 872.8 127.7C902 137.7 931 161.3 945.5 173.2L960 185L960 102L945.5 92C931 82 902 62 872.8 53.8C843.7 45.7 814.3 49.3 785.2 57.5C756 65.7 727 78.3 698 78.3C669 78.3 640 65.7 611 62C582 58.3 553 63.7 523.8 72.7C494.7 81.7 465.3 94.3 436.2 97C407 99.7 378 92.3 349 85.2C320 78 291 71 262 72.8C233 74.7 204 85.3 174.8 88C145.7 90.7 116.3 85.3 87.2 77.3C58 69.3 29 58.7 14.5 53.3L0 48Z" fill="#8578cb"></path><path d="M0 239L14.5 251.5C29 264 58 289 87.2 300.7C116.3 312.3 145.7 310.7 174.8 309.8C204 309 233 309 262 297.3C291 285.7 320 262.3 349 257.8C378 253.3 407 267.7 436.2 270.3C465.3 273 494.7 264 523.8 268.5C553 273 582 291 611 312.5C640 334 669 359 698 350.8C727 342.7 756 301.3 785.2 298.7C814.3 296 843.7 332 872.8 346.5C902 361 931 354 945.5 350.5L960 347L960 183L945.5 171.2C931 159.3 902 135.7 872.8 125.7C843.7 115.7 814.3 119.3 785.2 134.7C756 150 727 177 698 176.2C669 175.3 640 146.7 611 132.3C582 118 553 118 523.8 132.3C494.7 146.7 465.3 175.3 436.2 180.7C407 186 378 168 349 159C320 150 291 150 262 154.5C233 159 204 168 174.8 173.5C145.7 179 116.3 181 87.2 169.3C58 157.7 29 132.3 14.5 119.7L0 107Z" fill="#6f61c0"></path><path d="M0 314L14.5 329.3C29 344.7 58 375.3 87.2 386.2C116.3 397 145.7 388 174.8 385.3C204 382.7 233 386.3 262 374.7C291 363 320 336 349 332.3C378 328.7 407 348.3 436.2 344.7C465.3 341 494.7 314 523.8 314C553 314 582 341 611 363.5C640 386 669 404 698 395C727 386 756 350 785.2 356.3C814.3 362.7 843.7 411.3 872.8 431.2C902 451 931 442 945.5 437.5L960 433L960 345L945.5 348.5C931 352 902 359 872.8 344.5C843.7 330 814.3 294 785.2 296.7C756 299.3 727 340.7 698 348.8C669 357 640 332 611 310.5C582 289 553 271 523.8 266.5C494.7 262 465.3 271 436.2 268.3C407 265.7 378 251.3 349 255.8C320 260.3 291 283.7 262 295.3C233 307 204 307 174.8 307.8C145.7 308.7 116.3 310.3 87.2 298.7C58 287 29 262 14.5 249.5L0 237Z" fill="#5f53a7"></path><path d="M0 541L14.5 541C29 541 58 541 87.2 541C116.3 541 145.7 541 174.8 541C204 541 233 541 262 541C291 541 320 541 349 541C378 541 407 541 436.2 541C465.3 541 494.7 541 523.8 541C553 541 582 541 611 541C640 541 669 541 698 541C727 541 756 541 785.2 541C814.3 541 843.7 541 872.8 541C902 541 931 541 945.5 541L960 541L960 431L945.5 435.5C931 440 902 449 872.8 429.2C843.7 409.3 814.3 360.7 785.2 354.3C756 348 727 384 698 393C669 402 640 384 611 361.5C582 339 553 312 523.8 312C494.7 312 465.3 339 436.2 342.7C407 346.3 378 326.7 349 330.3C320 334 291 361 262 372.7C233 384.3 204 380.7 174.8 383.3C145.7 386 116.3 395 87.2 384.2C58 373.3 29 342.7 14.5 327.3L0 312Z" fill="#50468e"></path></svg>