<svg id="visual" viewBox="0 0 1920 1080" width="1920" height="1080" xmlns="http://www.w3.org/2000/svg" xmlns:xlink="http://www.w3.org/1999/xlink" version="1.1"><path d="M0 314L29.2 335.7C58.3 357.3 116.7 400.7 174.8 413.3C233 426 291 408 349.2 368.3C407.3 328.7 465.7 267.3 523.8 227.7C582 188 640 170 698.2 195.2C756.3 220.3 814.7 288.7 872.8 317.5C931 346.3 989 335.7 1047.2 325C1105.3 314.3 1163.7 303.7 1221.8 296.5C1280 289.3 1338 285.7 1396.2 269.3C1454.3 253 1512.7 224 1570.8 200.5C1629 177 1687 159 1745.2 177C1803.3 195 1861.7 249 1890.8 276L1920 303L1920 0L1890.8 0C1861.7 0 1803.3 0 1745.2 0C1687 0 1629 0 1570.8 0C1512.7 0 1454.3 0 1396.2 0C1338 0 1280 0 1221.8 0C1163.7 0 1105.3 0 1047.2 0C989 0 931 0 872.8 0C814.7 0 756.3 0 698.2 0C640 0 582 0 523.8 0C465.7 0 407.3 0 349.2 0C291 0 233 0 174.8 0C116.7 0 58.3 0 29.2 0L0 0Z" fill="#9e90fa"></path><path d="M0 433L29.2 465.3C58.3 497.7 116.7 562.3 174.8 585.7C233 609 291 591 349.2 533.5C407.3 476 465.7 379 523.8 339.5C582 300 640 318 698.2 352.2C756.3 386.3 814.7 436.7 872.8 460C931 483.3 989 479.7 1047.2 467C1105.3 454.3 1163.7 432.7 1221.8 429.2C1280 425.7 1338 440.3 1396.2 429.7C1454.3 419 1512.7 383 1570.8 341.5C1629 300 1687 253 1745.2 269.2C1803.3 285.3 1861.7 364.7 1890.8 404.3L1920 444L1920 301L1890.8 274C1861.7 247 1803.3 193 1745.2 175C1687 157 1629 175 1570.8 198.5C1512.7 222 1454.3 251 1396.2 267.3C1338 283.7 1280 287.3 1221.8 294.5C1163.7 301.7 1105.3 312.3 1047.2 323C989 333.7 931 344.3 872.8 315.5C814.7 286.7 756.3 218.3 698.2 193.2C640 168 582 186 523.8 225.7C465.7 265.3 407.3 326.7 349.2 366.3C291 406 233 424 174.8 411.3C116.7 398.7 58.3 355.3 29.2 333.7L0 312Z" fill="#8877f6"></path><path d="M0 692L29.2 713.7C58.3 735.3 116.7 778.7 174.8 800.3C233 822 291 822 349.2 793.2C407.3 764.3 465.7 706.7 523.8 676C582 645.3 640 641.7 698.2 654.3C756.3 667 814.7 696 872.8 694.2C931 692.3 989 659.7 1047.2 666.8C1105.3 674 1163.7 721 1221.8 753.5C1280 786 1338 804 1396.2 802.2C1454.3 800.3 1512.7 778.7 1570.8 748C1629 717.3 1687 677.7 1745.2 674C1803.3 670.3 1861.7 702.7 1890.8 718.8L1920 735L1920 442L1890.8 402.3C1861.7 362.7 1803.3 283.3 1745.2 267.2C1687 251 1629 298 1570.8 339.5C1512.7 381 1454.3 417 1396.2 427.7C1338 438.3 1280 423.7 1221.8 427.2C1163.7 430.7 1105.3 452.3 1047.2 465C989 477.7 931 481.3 872.8 458C814.7 434.7 756.3 384.3 698.2 350.2C640 316 582 298 523.8 337.5C465.7 377 407.3 474 349.2 531.5C291 589 233 607 174.8 583.7C116.7 560.3 58.3 495.7 29.2 463.3L0 431Z" fill="#715df2"></path><path d="M0 951L29.2 954.7C58.3 958.3 116.7 965.7 174.8 960.3C233 955 291 937 349.2 931.7C407.3 926.3 465.7 933.7 523.8 926.5C582 919.3 640 897.7 698.2 894C756.3 890.3 814.7 904.7 872.8 902.8C931 901 989 883 1047.2 895.7C1105.3 908.3 1163.7 951.7 1221.8 964.3C1280 977 1338 959 1396.2 955.3C1454.3 951.7 1512.7 962.3 1570.8 949.7C1629 937 1687 901 1745.2 897.3C1803.3 893.7 1861.7 922.3 1890.8 936.7L1920 951L1920 733L1890.8 716.8C1861.7 700.7 1803.3 668.3 1745.2 672C1687 675.7 1629 715.3 1570.8 746C1512.7 776.7 1454.3 798.3 1396.2 800.2C1338 802 1280 784 1221.8 751.5C1163.7 719 1105.3 672 1047.2 664.8C989 657.7 931 690.3 872.8 692.2C814.7 694 756.3 665 698.2 652.3C640 639.7 582 643.3 523.8 674C465.7 704.7 407.3 762.3 349.2 791.2C291 820 233 820 174.8 798.3C116.7 776.7 58.3 733.3 29.2 711.7L0 690Z" fill="#614dd5"></path><path d="M0 1081L29.2 1081C58.3 1081 116.7 1081 174.8 1081C233 1081 291 1081 349.2 1081C407.3 1081 465.7 1081 523.8 1081C582 1081 640 1081 698.2 1081C756.3 1081 814.7 1081 872.8 1081C931 1081 989 1081 1047.2 1081C1105.3 1081 1163.7 1081 1221.8 1081C1280 1081 1338 1081 1396.2 1081C1454.3 1081 1512.7 1081 1570.8 1081C1629 1081 1687 1081 1745.2 1081C1803.3 1081 1861.7 1081 1890.8 1081L1920 1081L1920 949L1890.8 934.7C1861.7 920.3 1803.3 891.7 1745.2 895.3C1687 899 1629 935 1570.8 947.7C1512.7 960.3 1454.3 949.7 1396.2 953.3C1338 957 1280 975 1221.8 962.3C1163.7 949.7 1105.3 906.3 1047.2 893.7C989 881 931 899 872.8 900.8C814.7 902.7 756.3 888.3 698.2 892C640 895.7 582 917.3 523.8 924.5C465.7 931.7 407.3 924.3 349.2 929.7C291 935 233 953 174.8 958.3C116.7 963.7 58.3 956.3 29.2 952.7L0 949Z" fill="#513eb8"></path></svg>